<?xml version="1.0" encoding="UTF-8"?>
<svg width="1200pt" height="1200pt" version="1.1" viewBox="0 0 1200 1200" xmlns="http://www.w3.org/2000/svg">
 <path d="m743.98 735.79c-0.19531-0.003906-0.13281 0 0 0.003906zm-96.637 319.29c-18.48 0-36.062-8.3203-47.887-22.219-4.0625 1.2617-8.3086 1.9141-12.613 1.9141-23.406 0-42.449-19.043-42.449-42.449s19.043-42.449 42.449-42.449c4.293 0 8.5312 0.64844 12.578 1.9023 11.824-14.059 29.121-22.207 47.922-22.207 34.602 0 62.754 28.152 62.754 62.754 0 34.605-28.152 62.754-62.754 62.754zm-77.129-114.67c-23.406 0-42.449-19.043-42.449-42.449s19.043-42.449 42.449-42.449 42.449 19.043 42.449 42.449c-0.003907 23.41-19.043 42.449-42.449 42.449zm68.602-57.152c-18.195 0-33-14.805-33-33 0-18.195 14.805-33 33-33 18.195 0 33 14.805 33 33-0.003906 18.199-14.805 33-33 33zm360.57-200.64c-4.8164 0-9.4844-1.0312-13.875-3.0703-7.9961-3.7109-14.066-10.312-17.098-18.59-3.0312-8.2773-2.6562-17.238 1.0547-25.234 5.3906-11.609 17.145-19.113 29.945-19.113 4.8164 0 9.4844 1.0312 13.875 3.0703 7.9961 3.7109 14.066 10.312 17.098 18.59 3.0312 8.2773 2.6562 17.238-1.0547 25.234-5.3867 11.609-17.141 19.113-29.945 19.113zm-132.47-22.312c-9.1523 0-18.031-1.9688-26.387-5.8438-15.203-7.0547-26.75-19.609-32.512-35.352-5.7617-15.742-5.0469-32.781 2.0117-47.988 7.9141-17.051 22.594-29.309 40.32-34.121 0.56641-4.2031 1.7617-8.3203 3.5664-12.211 6.9336-14.938 22.055-24.586 38.523-24.586 6.1914 0 12.199 1.3281 17.852 3.9531 21.23 9.8516 30.488 35.141 20.633 56.371-1.8125 3.9062-4.1914 7.4883-7.0469 10.637 7.6289 16.574 7.7734 36.027-0.003906 52.793-10.246 22.078-32.605 36.348-56.957 36.348zm118.08-50.547c-6.1953 0-12.199-1.3281-17.852-3.9531-21.23-9.8516-30.484-35.141-20.633-56.371 6.9336-14.938 22.055-24.586 38.523-24.586 6.1914 0 12.199 1.3281 17.852 3.9531 21.23 9.8555 30.484 35.145 20.633 56.371-6.9336 14.938-22.055 24.586-38.523 24.586zm80.871-448.62c-0.67188-6.4219-3.6758-12.98-8.8516-18.156-5.1758-5.1719-11.734-8.1758-18.156-8.8516-7.2266-0.75781-14.297 1.3711-19.496 6.5703-0.16797 0.16797 0.023437-0.007813-0.28125 0.32031l-0.21094 0.20312-419.32 419.29-23.289-23.289c-8.5742-8.5742-19.805-12.855-31.039-12.855s-22.461 4.2852-31.035 12.855l-23.074 23.074s-0.007813 0.003906-0.007813 0.007813c-16.215 16.219-30.312 26.695-45.922 38.297-20.316 15.102-43.074 32.016-75.242 64.184-17.922 17.922-35.859 42.949-55.508 70.359-43.809 61.129-96.453 134.57-171.87 159.04-4.4688 1.2812-7.8438 5.2734-8.1133 10.176-1.543 27.898 0.63672 52.266 6.5586 73.086 1.6523 5.8086 3.6211 11.32 5.8555 16.582l156.45-156.27c4.3945-4.3945 11.52-4.3945 15.91 0 4.3945 4.3945 4.3945 11.516 0 15.91l-161.18 160.99c3.9297 5.7812 8.3047 11.145 13.199 16.027l0.054688 0.054687c4.8203 4.832 10.113 9.1562 15.812 13.047l115-114.81c4.3945-4.3945 11.516-4.3945 15.91 0 4.3945 4.3945 4.3945 11.516 0 15.91l-110.31 110.13c5.3438 2.2812 10.938 4.2891 16.836 5.9688 20.816 5.918 45.188 8.1016 73.086 6.5586v-0.003907c4.5039-0.25 8.6016-3.2227 10.062-7.7734 5.3633-16.656 13.086-32.16 22.5-46.68 9.5156-14.672 20.781-28.359 33.133-41.23 31.027-32.34 69.191-59.691 103.52-84.293 27.414-19.648 52.441-37.586 70.359-55.508 32.168-32.164 49.086-54.926 64.184-75.242 11.602-15.609 22.078-29.703 38.297-45.918 0 0 0.003907-0.007812 0.007813-0.007812l23.074-23.074c8.5703-8.5703 12.855-19.805 12.855-31.035 0-11.23-4.2852-22.465-12.855-31.035l-23.289-23.289 419.29-419.33-0.007812-0.007813 0.007812-0.007812c0.55859-0.51953 0.30859-0.25781 0.51562-0.46875l-0.023437-0.019531 0.023437-0.023438c5.1953-5.1992 7.3281-12.254 6.5742-19.457zm-478.64 455.79c4.3945 4.3945 4.3945 11.516 0 15.91l-76.742 76.613c-2.1953 2.1953-5.0742 3.293-7.957 3.293-2.8789 0-5.7578-1.0977-7.957-3.293-4.3945-4.3945-4.3945-11.516 0-15.91l76.742-76.613c4.3984-4.3906 11.523-4.3906 15.914 0zm-161.57 98.012c-2.8789 0-5.7578-1.0977-7.957-3.293-4.3945-4.3945-4.3945-11.516 0-15.91l117.06-116.93c4.3906-4.3945 11.516-4.3945 15.91 0 4.3945 4.3945 4.3945 11.516 0 15.91l-117.06 116.93c-2.1953 2.1953-5.0781 3.293-7.9531 3.293zm199.72-46.113-140 139.87c-2.1953 2.1953-5.0742 3.293-7.957 3.293-2.8789 0-5.7578-1.0977-7.957-3.293-4.3945-4.3945-4.3945-11.516 0-15.91l140-139.87c4.3945-4.3945 11.516-4.3945 15.91 0 4.3984 4.3945 4.3984 11.516 0.003907 15.91zm440.53 73c0-7.8672-3.1914-14.992-8.3477-20.152-5.1562-5.1562-12.281-8.3477-20.152-8.3477-0.83203 0 0.042969 0.011719-0.22266 0.035156-0.1875-0.007813-0.375-0.015625-0.56641-0.015625h-291.85v0.035156h-0.042969v0.003906l-0.085938-0.003906c-1.2227-0.03125 0.37891-0.046875-0.66016-0.046875-7.8672 0-14.992 3.1914-20.152 8.3477-5.1562 5.1562-8.3477 12.281-8.3477 20.152 0 7.8672 3.1914 14.992 8.3477 20.152 4.375 4.375 10.176 7.3125 16.637 8.1094l35.195 285.38c0.51953 5.7266 5.3398 10.219 11.203 10.219h207.67v-0.003906c5.6094 0.003906 10.465-4.1758 11.16-9.8828l35.234-285.7c6.4609-0.79688 12.258-3.7344 16.637-8.1094 5.1523-5.1719 8.3438-12.297 8.3438-20.164zm-68.672 45.848c-6.7031 23.461-20.934 43.734-39.914 58.039-18.562 13.992-41.641 22.285-66.625 22.285-24.988 0-48.066-8.2969-66.629-22.285-18.98-14.305-33.211-34.582-39.914-58.039-1.6992-5.9727 1.7617-12.188 7.7344-13.887 5.9688-1.6953 12.188 1.7656 13.887 7.7344 5.3398 18.695 16.688 34.855 31.828 46.266 14.758 11.121 33.141 17.715 53.094 17.715 19.949 0 38.336-6.5938 53.09-17.715 15.141-11.41 26.488-27.574 31.828-46.266 1.6992-5.9688 7.918-9.4297 13.887-7.7344 5.9727 1.6992 9.4336 7.9141 7.7344 13.887z"/>
</svg>
