<?xml version="1.0" encoding="utf-8"?>
<!-- Generator: Adobe Illustrator 24.3.0, SVG Export Plug-In . SVG Version: 6.00 Build 0)  -->
<svg version="1.1" id="Layer_1" xmlns="http://www.w3.org/2000/svg" xmlns:xlink="http://www.w3.org/1999/xlink" x="0px" y="0px"
	 viewBox="0 0 1200 1200" style="enable-background:new 0 0 1200 1200;" xml:space="preserve">
<path d="M197,1003c0.8,49.8,21.1,97.4,56.6,132.3c35.5,35,83.2,54.6,133.1,54.7H1000c50.4-0.1,98.7-20.1,134.3-55.7
	c35.6-35.6,55.6-83.9,55.7-134.3V386.7c-0.1-49.8-19.7-97.6-54.7-133.1c-35-35.5-82.5-55.8-132.3-56.6
	c-0.8-49.8-21.1-97.3-56.6-132.3c-35.5-35-83.2-54.6-133.1-54.7H200c-49.6,0-97.2,19.5-132.5,54.2c-0.6,0.4-1.3,0.8-1.9,1.3
	c-0.5,0.5-0.7,1.2-1.1,1.7C29.6,102.6,10,150.3,10,200v613.3c0.1,49.8,19.7,97.6,54.7,133.1C99.7,981.9,147.1,1002.2,197,1003
	L197,1003z M70,200c0.1-24.1,6.9-47.6,19.7-68L232,274.1L70,436L70,200z M668.6,147.4L591.2,70h154.7L668.6,147.4z M626.2,189.8
	L189.8,626.2L77.3,513.6L513.6,77.3L626.2,189.8z M70,591.2l77.3,77.3L70,745.9L70,591.2z M71.6,829.1l357.6-357.6L541.7,584
	L184.2,941.7C125.3,934.5,78.8,888.1,71.6,829.1L71.6,829.1z M823.6,387.2L936,500L718.2,717.9h-0.3l-0.2,0.3L500,936.2L387.2,823.6
	L823.6,387.2z M344.8,866l77.3,77.3H267.4L344.8,866z M739.3,781.6l141.8,142.2v0c-20.4,12.8-43.9,19.5-68,19.6H577.5L739.3,781.6z
	 M943.3,813.3c-0.1,24-6.9,47.6-19.7,68L781.6,739.1l161.6-161.6L943.3,813.3z M943.3,422.1L866,344.8l77.3-77.3L943.3,422.1z
	 M1130,386.7V1000c-0.1,71.8-58.2,129.9-130,130H386.7c-70.4-0.1-127.9-56.3-129.7-126.7h556.3c49.4,0,96.7-19.4,132-53.9
	c0.7-0.6,1.5-0.8,2.2-1.5c0.5-0.6,0.9-1.3,1.3-2c34.8-35.3,54.3-83,54.4-132.6V257C1073.6,258.7,1129.8,316.2,1130,386.7L1130,386.7
	z M941.7,184.2L584,541.8L471.6,429.1L829.2,71.6C888,78.9,934.4,125.3,941.7,184.2L941.7,184.2z M436,70L274.3,231.7L132.2,89.6
	C152.5,76.9,176,70.1,200,70L436,70z"/>
</svg>
