<?xml version="1.0" encoding="UTF-8"?>
<svg width="1200pt" height="1200pt" version="1.1" viewBox="0 0 1200 1200" xmlns="http://www.w3.org/2000/svg">
 <path d="m596.4 847.2c16.801 10.801 34.801 18 52.801 27.602 8.3984 4.8008 15.602 3.6016 22.801-3.6016 26.398-27.602 54-54 80.398-80.398 34.801-34.801 79.199-34.801 115.2 0l129.6 129.6c36 36 36 80.398 0 117.6-24 25.199-50.398 48-73.199 74.398-33.602 37.199-75.602 50.398-124.8 46.801-70.801-3.6016-135.6-27.602-198-57.602-139.2-67.199-258-160.8-356.4-279.6-75.602-88.801-135.6-183.6-175.2-291.6-19.203-51.598-33.602-104.4-28.801-160.8 2.3984-34.801 15.602-64.801 40.801-88.801 27.602-26.398 54-54 80.398-80.398 36-34.801 80.398-34.801 115.2 0 21.602 21.602 43.199 43.199 64.801 64.801s42 42 63.602 63.602c37.199 37.199 37.199 80.398 0 117.6-26.398 26.398-52.801 52.801-79.199 79.199-7.1992 7.1992-7.1992 12-3.6016 21.602 18 42 43.199 80.398 72 115.2 57.598 71.992 123.6 135.59 201.6 184.79zm-42-772.8c-9.6016 22.801-7.1992 44.398 9.6016 63.602 13.199 14.398 30 16.801 49.199 18 168 9.6016 295.2 86.398 379.2 232.8 37.199 64.801 54 134.4 55.199 208.8 1.1992 34.801 25.199 56.398 60 55.199 33.602-1.1992 54-24 52.801-58.801-4.8008-150-60-278.4-176.4-398.4-16.801-13.199-45.602-38.398-76.801-58.801-91.199-60-192-91.199-301.2-92.398-24-2.4023-42 7.1992-51.602 29.996zm-10.797 249.6c6 24 26.398 40.801 54 40.801 62.398 1.1992 117.6 20.398 164.4 63.602 50.398 46.801 74.398 105.6 76.801 175.2 0 12 4.8008 26.398 12 36 15.602 20.398 42 25.199 66 16.801 21.602-8.3984 34.801-27.602 33.602-52.801-1.1992-96-36-177.6-103.2-248.4-67.203-66.004-150-100.8-246-103.2-9.6016 0-20.398 2.3984-30 6-22.801 12-33.598 38.398-27.598 66z"/>
</svg>
