<?xml version="1.0" encoding="UTF-8"?>
<svg width="1200pt" height="1200pt" version="1.1" viewBox="0 0 1200 1200" xmlns="http://www.w3.org/2000/svg">
 <path d="m224.87 449.87c16.594 0 32.812-2.3438 48.43-6.4883l53.156 53.156-166.65 166.65c-7.332 7.332-7.332 19.18 0 26.512l79.539 79.555c3.5234 3.5234 8.2695 5.4922 13.258 5.4922 4.9883 0 9.75-1.9688 13.258-5.4922l166.65-166.65 150.32 150.34c18.281 18.281 42.281 27.414 66.281 27.414 24.02 0 48.039-9.1328 66.301-27.414 36.523-36.562 36.523-96.039 0-132.58l-150.32-150.32 72.02-72c0.73047-0.73047 1.3867-1.5195 1.9883-2.3633l53.418-74.793 77.176 77.156c3.5234 3.5234 8.2695 5.4922 13.258 5.4922s9.75-1.9688 13.258-5.4922l79.539-79.555c7.332-7.332 7.332-19.18 0-26.512l-176.44-176.46c-16.988-16.969-38.211-29.289-61.352-35.586-73.539-20.062-149.61 23.457-169.69 96.957l-8.3438 30.602c-2.2305 8.2109 1.3125 16.875 8.6797 21.148 7.3516 4.2734 16.668 3.0742 22.668-2.9609 14.176-14.156 33-21.957 53.023-21.957s38.852 7.8008 53.023 21.957l10.875 10.875-74.793 53.418c-0.84375 0.60156-1.6328 1.2734-2.3633 2.0078l-72 72-53.23-53.23c16.594-62.531 0.60156-131.98-48.355-180.94-55.949-55.988-141.7-70.688-213.28-36.508-5.4922 2.625-9.375 7.7422-10.406 13.742-1.0508 6 0.91797 12.133 5.2109 16.426l125.64 125.66c3.543 3.5234 5.4922 8.2305 5.4922 13.258 0 5.0234-1.9492 9.7109-5.4922 13.258l-26.496 26.488c-7.332 7.332-19.18 7.3125-26.512 0l-125.64-125.62c-4.3125-4.3125-10.555-6.2812-16.426-5.2109-6 1.0117-11.137 4.8945-13.742 10.387-34.145 71.57-19.48 157.27 36.488 213.26 35.418 35.418 82.5 54.918 132.58 54.918zm319.43-283.67c-11.832 0-23.398 1.8203-34.352 5.3047 20.043-44.156 69.863-68.57 118.16-55.426 16.855 4.5938 32.324 13.574 44.699 25.93l110.16 110.16-53.043 53.023-106.07-106.07c-21.242-21.219-49.496-32.918-79.555-32.918zm90.789 97.199 30.582 30.582-44.195 61.875-48.262-48.242zm-149.53 286.16 137.06 137.06c3.6562 3.6562 8.457 5.4922 13.258 5.4922 4.8008 0 9.6016-1.8359 13.258-5.4922 7.332-7.332 7.332-19.18 0-26.512l-137.06-137.06 26.512-26.512 150.32 150.32c21.918 21.938 21.918 57.617 0 79.555-21.918 21.898-57.602 21.938-79.555 0l-150.32-150.34zm-94.426-200.49 41.398 41.398-26.531 26.531-35.961-35.961c8.25-10.07 15.262-20.797 21.094-31.969zm-47.586 58.48 35.945 35.945-26.512 26.512-41.383-41.383c11.246-5.8867 21.973-12.883 31.949-21.074z"/>
 <path d="m993.75 356.25h-67.312c-35.25 0-63.938 28.688-63.938 63.938v134.62c0 35.25 28.688 63.938 63.938 63.938 7.875 0 15 3.1875 20.062 9.1875 5.0625 5.8125 7.5 13.5 6.375 21.375-21.75 156.94-146.62 281.81-303.56 303.56-7.875 1.125-15.562-1.3125-21.375-6.375-6-5.0625-9.1875-12.188-9.1875-20.062 0-35.25-28.688-63.938-63.938-63.938h-134.62c-35.25 0-63.938 28.688-63.938 63.938v48.562h-131.25c-31.012 0-56.25 25.238-56.25 56.25s25.238 56.25 56.25 56.25c10.352 0 18.75 8.418 18.75 18.75s-8.3984 18.75-18.75 18.75h-168.75c-10.367 0-18.75 8.3984-18.75 18.75s8.3828 18.75 18.75 18.75h168.75c31.012 0 56.25-25.238 56.25-56.25s-25.238-56.25-56.25-56.25c-10.352 0-18.75-8.418-18.75-18.75s8.3984-18.75 18.75-18.75h132.38c9.1875 84.188 81 150 167.62 150h75c310.12 0 562.5-252.38 562.5-562.5v-75c0-93-75.75-168.75-168.75-168.75zm-468.75 656.25h-129.75c-1.125-6.1875-1.5-12.375-1.5-18.75v-18.75h131.25c10.312 0 18.75 8.4375 18.75 18.75s-8.4375 18.75-18.75 18.75zm487.5-487.5c0 10.312-8.4375 18.75-18.75 18.75s-18.75-8.4375-18.75-18.75v-131.25h18.75c6.375 0 12.562 0.375 18.75 1.5z"/>
 <path d="m971.4 278.98c-7.332 7.332-7.332 19.18 0 26.512 3.6562 3.6562 8.457 5.4922 13.258 5.4922s9.6016-1.8359 13.258-5.4922c7.125-7.0859 19.445-7.0508 26.492 0 7.332 7.3516 19.199 7.332 26.531 0.019531s7.332-19.18 0.019531-26.512c-21.246-21.242-58.332-21.301-79.559-0.019531z"/>
 <path d="m1090.7 257.95c4.8008 0 9.6016-1.8359 13.258-5.4922 7.332-7.332 7.332-19.199 0-26.512-24.789-24.789-57.75-38.438-92.812-38.438s-68.008 13.648-92.793 38.438c-7.332 7.332-7.332 19.199 0 26.512 7.332 7.332 19.18 7.332 26.512 0 17.695-17.703 41.246-27.453 66.277-27.453 25.051 0 48.602 9.75 66.301 27.449 3.6562 3.6758 8.457 5.4961 13.258 5.4961z"/>
 <path d="m878.57 204.92c4.8008 0 9.6016-1.8359 13.258-5.4922 65.812-65.793 172.89-65.793 238.67 0 7.332 7.332 19.18 7.332 26.512 0 7.332-7.332 7.332-19.18 0-26.512-80.398-80.418-211.26-80.418-291.7 0-7.332 7.332-7.332 19.18 0 26.512 3.6758 3.6562 8.4766 5.4922 13.258 5.4922z"/>
</svg>
